<svg width="184" height="40" viewBox="0 0 184 40" fill="none" xmlns="http://www.w3.org/2000/svg">
<path d="M36.1431 8.60671C36.9613 5.44072 36.6023 2.97925 35.0966 1.47351C33.9882 0.36512 32.3788 -0.121618 30.3126 0.0256864C28.4838 0.156468 26.3793 0.780931 24.0558 1.87939C23.2092 1.76599 22.3561 1.709 21.5019 1.70879C16.4669 1.70879 11.6382 3.70893 8.07787 7.26919C4.51761 10.8294 2.51748 15.6582 2.51748 20.6932C2.51769 21.5473 2.57468 22.4005 2.68807 23.2471C1.58944 25.5706 0.965421 27.6751 0.834376 29.5039C0.68672 31.5698 1.17381 33.1794 2.2822 34.2878C3.26244 35.2681 4.6476 35.7625 6.36911 35.7625C7.3984 35.7478 8.42176 35.6038 9.41513 35.3339C13.0571 38.3403 17.6887 39.8815 22.4059 39.6566C27.123 39.4317 31.5871 37.4568 34.9264 34.1176C38.2658 30.7783 40.2407 26.3143 40.4658 21.5972C40.6908 16.88 39.1495 12.2487 36.1431 8.60671ZM30.4126 1.42842C32.0534 1.31126 33.2948 1.6608 34.1019 2.4679C34.8226 3.18861 35.5031 4.60365 34.9889 7.33406C34.9676 7.31252 34.947 7.29064 34.9256 7.26919C32.5929 4.92562 29.6855 3.23598 26.4944 2.36947C27.9303 1.83184 29.2601 1.51077 30.4126 1.42842ZM18.5386 3.36615L18.003 5.77496C17.9652 5.94478 17.9918 6.12256 18.0775 6.27393C18.1632 6.42531 18.302 6.53954 18.467 6.59454L22.3522 7.8897L22.9443 9.66509C22.9937 9.81339 23.0912 9.941 23.2212 10.0277L24.9184 11.1591L24.3982 13.24L20.0819 16.3232L18.3926 15.1969L15.5957 13.0994C15.4603 12.9979 15.2928 12.9486 15.1239 12.9605C14.9551 12.9725 14.7963 13.045 14.6766 13.1647L12.5672 15.2741C12.5019 15.3394 12.4501 15.4169 12.4148 15.5022C12.3795 15.5875 12.3613 15.679 12.3613 15.7713V18.9956L11.2626 20.0943L7.881 21.4469C7.74895 21.4997 7.63602 21.5914 7.55713 21.7097L6.15088 23.8191C6.07401 23.9345 6.03304 24.0701 6.0331 24.2088V27.3729L5.43545 27.8211C4.43632 25.5777 3.92122 23.149 3.92373 20.6932C3.92373 12.0105 10.252 4.77899 18.5386 3.36615ZM3.27659 33.2934C2.46949 32.4864 2.11977 31.2451 2.23711 29.6041C2.31946 28.4516 2.64053 27.1216 3.17815 25.686C4.04467 28.877 5.73431 31.7845 8.07788 34.1171C8.09932 34.1386 8.1213 34.1592 8.14283 34.1805C5.41224 34.6946 3.99738 34.0141 3.27659 33.2934ZM12.1767 31.4529L11.097 29.8338L12.2044 28.1727L13.4807 26.8963L15.8262 25.7235L17.596 26.9034C17.7116 26.9804 17.8474 27.0214 17.9863 27.0213H19.1013L20.0413 27.9617C17.7766 29.7509 15.4924 31.2313 13.3282 32.3172L12.1767 31.4529ZM21.0415 28.9612L21.7082 29.6279C21.7941 29.7137 21.9008 29.7758 22.0178 29.8082C22.1349 29.8405 22.2584 29.842 22.3762 29.8124L24.557 29.2675L24.9795 30.5369L24.4616 32.0904L22.6862 32.6824C22.5462 32.729 22.4243 32.8185 22.3379 32.9382C22.2516 33.0579 22.2051 33.2018 22.205 33.3494V35.0825L20.4087 36.28C20.2632 36.377 20.1591 36.5247 20.1167 36.6944L19.7441 38.1834C18.8555 38.095 17.975 37.9386 17.1103 37.7156L16.5731 33.9529C16.5491 33.7853 16.4655 33.6321 16.3376 33.5212C16.2097 33.4104 16.0461 33.3494 15.8769 33.3494H14.7051L14.5759 33.2527C16.682 32.1365 18.8754 30.6825 21.0415 28.9612ZM14.0488 34.615C14.1705 34.7063 14.3185 34.7557 14.4707 34.7557H15.267L15.6245 37.2595C13.9914 36.6778 12.4535 35.8573 11.0608 34.8249C11.7463 34.5795 12.4488 34.2893 13.1681 33.9542L14.0488 34.615ZM21.1728 38.2671L21.4149 37.2993L23.2982 36.0438C23.3945 35.9796 23.4735 35.8926 23.5281 35.7905C23.5827 35.6885 23.6113 35.5745 23.6113 35.4588V33.8562L25.2399 33.3133C25.3434 33.2788 25.4375 33.2206 25.5147 33.1435C25.5919 33.0663 25.65 32.9722 25.6845 32.8687L26.3877 30.7593C26.4358 30.615 26.4358 30.4589 26.3877 30.3146L25.6845 28.2052C25.6285 28.0371 25.5111 27.8964 25.3559 27.8112C25.2006 27.726 25.0189 27.7025 24.847 27.7454L22.4207 28.3519L22.1355 28.0667C22.7918 27.5151 23.4429 26.9408 24.0891 26.344L23.1335 25.3122C22.4744 25.9225 21.8091 26.5082 21.1376 27.0692L19.8895 25.8211C19.7578 25.6893 19.579 25.6151 19.3925 25.615H18.1991L16.267 24.3269C16.1638 24.2581 16.0443 24.2178 15.9206 24.2101C15.7969 24.2024 15.6733 24.2275 15.5624 24.283L12.7499 25.6892C12.6823 25.723 12.6206 25.7676 12.5672 25.8211L11.161 27.2273C11.1282 27.2601 11.0988 27.2959 11.0731 27.3344L9.66677 29.4438C9.58975 29.5593 9.54865 29.6951 9.54865 29.8339C9.54865 29.9727 9.58975 30.1084 9.66677 30.2239L11.0731 32.3333C11.1173 32.3996 11.1725 32.4579 11.2363 32.5057L11.8832 32.9908C11.194 33.2894 10.4892 33.5505 9.77179 33.7731C8.28266 32.437 7.03093 30.858 6.06984 29.1033L7.1581 28.2869C7.24543 28.2214 7.31631 28.1365 7.36512 28.0389C7.41394 27.9412 7.43935 27.8336 7.43935 27.7244V24.4217L8.60636 22.6711L11.9193 21.346C12.0077 21.3106 12.088 21.2577 12.1554 21.1904L13.5616 19.7841C13.6269 19.7188 13.6787 19.6413 13.714 19.556C13.7493 19.4707 13.7675 19.3793 13.7675 19.2869V16.0625L15.2397 14.5903L17.5644 16.3338C17.5748 16.3416 17.5854 16.3491 17.5962 16.3563L19.7056 17.7625C19.8243 17.8417 19.9643 17.8829 20.107 17.8806C20.2496 17.8783 20.3882 17.8326 20.5043 17.7497L25.4262 14.2341C25.5622 14.1369 25.6591 13.9946 25.6996 13.8324L26.4028 11.0199C26.438 10.8792 26.4289 10.731 26.3766 10.5957C26.3243 10.4604 26.2314 10.3445 26.1107 10.2641L24.2021 8.99158L23.5752 7.11073C23.5406 7.00719 23.4825 6.91311 23.4053 6.83593C23.3281 6.75876 23.2341 6.70061 23.1305 6.66609L19.5134 5.46102L20.0209 3.17806C20.5094 3.1371 21.003 3.11504 21.5019 3.11504C23.9709 3.11421 26.4122 3.63469 28.6662 4.64242C30.9201 5.65016 32.9359 7.12244 34.5816 8.96293C34.0406 10.7314 33.1461 12.6613 31.9185 14.7063L33.1242 15.43C34.2124 13.6168 35.0527 11.8813 35.634 10.2524C37.3266 12.5329 38.4383 15.1913 38.8732 17.9978L36.6027 19.3907C36.4458 19.487 36.3329 19.6409 36.2883 19.8195L34.9755 25.0701L31.1233 26.3543C30.9833 26.401 30.8615 26.4905 30.7753 26.6102C30.689 26.7299 30.6425 26.8737 30.6425 27.0213V30.9488L29.4422 32.1491C29.3331 32.2582 29.263 32.4001 29.2425 32.553C29.222 32.7058 29.2524 32.8612 29.3289 32.9951L30.8143 35.595C28.0245 37.3472 24.7963 38.2749 21.5019 38.2713C21.3919 38.2713 21.2822 38.2691 21.1728 38.2671ZM31.9792 34.7989L30.8164 32.7637L31.8429 31.7372C31.9081 31.6719 31.9599 31.5944 31.9953 31.5091C32.0306 31.4238 32.0488 31.3324 32.0488 31.24V27.5281L35.7868 26.282C35.899 26.2446 35.9999 26.1795 36.0803 26.0927C36.1607 26.006 36.2178 25.9003 36.2465 25.7856L37.5832 20.4392L39.0415 19.5445C39.0661 19.9244 39.08 20.3072 39.08 20.6932C39.0798 23.4355 38.4375 26.1397 37.2044 28.5891C35.9714 31.0386 34.1818 33.1653 31.9792 34.7989Z" fill="#CA1E28"/>
<path d="M34.1562 23.504V17.879C34.1563 17.7263 34.1065 17.5776 34.0145 17.4557C33.9226 17.3337 33.7934 17.245 33.6465 17.203L28.7246 15.7967C28.5982 15.7605 28.4643 15.7605 28.3379 15.7967L23.416 17.203C23.2691 17.245 23.1399 17.3337 23.048 17.4557C22.956 17.5776 22.9062 17.7263 22.9063 17.879V23.504C22.9062 23.6568 22.956 23.8054 23.048 23.9274C23.1399 24.0494 23.2691 24.1381 23.416 24.1801L28.3379 25.5863C28.4643 25.6225 28.5982 25.6225 28.7246 25.5863L33.6465 24.1801C33.7934 24.1381 33.9226 24.0494 34.0145 23.9274C34.1065 23.8054 34.1563 23.6568 34.1562 23.504ZM28.5312 17.204L30.8937 17.879L28.5312 18.554L26.1688 17.879L28.5312 17.204ZM24.3125 18.8112L27.8281 19.8157V23.9781L24.3125 22.9737V18.8112ZM29.2344 23.9781V19.8157L32.75 18.8112V22.9737L29.2344 23.9781Z" fill="#F7C700"/>
<path d="M20.7969 11.5508H22.2031V12.9571H20.7969V11.5508Z" fill="#CA1E28"/>
<path d="M11.6562 8.73828H13.0625V10.1446H11.6562V8.73828Z" fill="#CA1E28"/>
<path d="M8.14062 17.1758H9.54688V18.5821H8.14062V17.1758Z" fill="#CA1E28"/>
<path d="M14.4688 27.7227H15.875V29.129H14.4688V27.7227Z" fill="#CA1E28"/>
<path d="M18.6875 32.6484H20.0938V34.0546H18.6875V32.6484Z" fill="#CA1E28"/>
<path d="M33.4531 28.4258H34.8594V29.8321H33.4531V28.4258Z" fill="#CA1E28"/>
<path d="M46.6328 29.9983V9.39031H51.7848V26.0303H61.5128V29.9983H46.6328ZM72.8273 30.3183C69.478 30.3183 66.9286 29.465 65.1793 27.7583C63.43 26.0516 62.5553 23.3956 62.5553 19.7903C62.5553 15.9716 63.43 13.2303 65.1793 11.5663C66.9286 9.90231 69.478 9.07031 72.8273 9.07031C76.1766 9.07031 78.726 9.90231 80.4753 11.5663C82.2246 13.2303 83.0993 15.9716 83.0993 19.7903C83.0993 23.3956 82.2246 26.0516 80.4753 27.7583C78.726 29.465 76.1766 30.3183 72.8273 30.3183ZM72.8273 25.9343C74.5553 25.9343 75.814 25.4436 76.6033 24.4623C77.414 23.4596 77.8193 21.9023 77.8193 19.7903C77.8193 17.4863 77.414 15.865 76.6033 14.9263C75.814 13.9663 74.5553 13.4863 72.8273 13.4863C71.078 13.4863 69.798 13.9663 68.9873 14.9263C68.198 15.865 67.8033 17.4863 67.8033 19.7903C67.8033 21.9023 68.198 23.4596 68.9873 24.4623C69.798 25.4436 71.078 25.9343 72.8273 25.9343ZM95.9986 30.3183C92.4359 30.3183 89.7266 29.4223 87.8706 27.6303C86.0146 25.817 85.0866 23.2676 85.0866 19.9823C85.0866 16.5476 86.0359 13.8703 87.9346 11.9503C89.8332 10.0303 92.6279 9.07031 96.3186 9.07031C97.5772 9.07031 98.7079 9.14498 99.7106 9.29431C100.735 9.44364 101.705 9.66764 102.623 9.96631V14.3823C101.705 14.041 100.745 13.8063 99.7426 13.6783C98.7612 13.5503 97.7479 13.4863 96.7026 13.4863C94.4839 13.4863 92.8626 14.0196 91.8386 15.0863C90.8359 16.1316 90.3346 17.7636 90.3346 19.9823C90.3346 22.009 90.8146 23.513 91.7746 24.4943C92.7346 25.4543 94.1532 25.9343 96.0306 25.9343C97.2679 25.9343 98.4199 25.7636 99.4866 25.4223V21.5183H95.0386V18.2863H103.807V28.4943C103.081 28.9636 102.068 29.3903 100.767 29.7743C99.4866 30.137 97.8972 30.3183 95.9986 30.3183ZM106.446 29.9983V9.39031H111.598V29.9983H106.446Z" fill="#030101"/>
<path d="M114.852 29.9986V9.39062H119.94L125.54 20.8146L131.108 9.39062H136.164V29.9986H131.012V18.1586L126.948 26.4786H124.1L120.004 18.1586V29.9986H114.852ZM138.774 29.9986L146.646 9.39062H152.214L160.086 29.9986H154.71L152.854 25.3266H145.974L144.15 29.9986H138.774ZM146.678 21.5186H152.15L149.398 14.3506L146.678 21.5186ZM161.087 29.9986L168.607 19.6306L161.311 9.39062H167.455L171.711 15.5346L175.999 9.39062H182.143L174.847 19.6306L182.367 29.9986H176.159L171.711 23.7586L167.295 29.9986H161.087Z" fill="black"/>
</svg>
