<svg width="266" height="40" viewBox="0 0 266 40" fill="none" xmlns="http://www.w3.org/2000/svg">
<path d="M36.1411 8.60671C36.9593 5.44072 36.6003 2.97925 35.0946 1.47351C33.9862 0.36512 32.3768 -0.121618 30.3106 0.0256864C28.4818 0.156468 26.3773 0.780931 24.0538 1.87939C23.2072 1.76599 22.3541 1.709 21.4999 1.70879C16.4649 1.70879 11.6362 3.70893 8.07592 7.26919C4.51566 10.8294 2.51553 15.6582 2.51553 20.6932C2.51574 21.5473 2.57273 22.4005 2.68612 23.2471C1.58749 25.5706 0.963468 27.6751 0.832423 29.5039C0.684767 31.5698 1.17186 33.1794 2.28025 34.2878C3.26049 35.2681 4.64565 35.7625 6.36716 35.7625C7.39645 35.7478 8.41981 35.6038 9.41318 35.3339C13.0551 38.3403 17.6867 39.8815 22.4039 39.6566C27.121 39.4317 31.5851 37.4568 34.9244 34.1176C38.2638 30.7783 40.2387 26.3143 40.4638 21.5972C40.6888 16.88 39.1475 12.2487 36.1411 8.60671ZM30.4106 1.42842C32.0514 1.31126 33.2928 1.6608 34.0999 2.4679C34.8206 3.18861 35.5011 4.60365 34.9869 7.33406C34.9656 7.31252 34.945 7.29064 34.9236 7.26919C32.5909 4.92562 29.6835 3.23598 26.4924 2.36947C27.9283 1.83184 29.2581 1.51077 30.4106 1.42842ZM18.5366 3.36615L18.001 5.77496C17.9632 5.94478 17.9898 6.12256 18.0755 6.27393C18.1612 6.42531 18.3 6.53954 18.465 6.59454L22.3502 7.8897L22.9423 9.66509C22.9917 9.81339 23.0892 9.941 23.2192 10.0277L24.9164 11.1591L24.3962 13.24L20.0799 16.3232L18.3906 15.1969L15.5937 13.0994C15.4583 12.9979 15.2908 12.9486 15.1219 12.9605C14.9531 12.9725 14.7943 13.045 14.6746 13.1647L12.5652 15.2741C12.4999 15.3394 12.4481 15.4169 12.4128 15.5022C12.3775 15.5875 12.3593 15.679 12.3593 15.7713V18.9956L11.2606 20.0943L7.87905 21.4469C7.747 21.4997 7.63407 21.5914 7.55518 21.7097L6.14893 23.8191C6.07206 23.9345 6.03109 24.0701 6.03115 24.2088V27.3729L5.4335 27.8211C4.43437 25.5777 3.91927 23.149 3.92178 20.6932C3.92178 12.0105 10.25 4.77899 18.5366 3.36615ZM3.27464 33.2934C2.46754 32.4864 2.11782 31.2451 2.23516 29.6041C2.31751 28.4516 2.63858 27.1216 3.1762 25.686C4.04272 28.877 5.73236 31.7845 8.07593 34.1171C8.09737 34.1386 8.11935 34.1592 8.14088 34.1805C5.41029 34.6946 3.99543 34.0141 3.27464 33.2934ZM12.1747 31.4529L11.095 29.8338L12.2024 28.1727L13.4787 26.8963L15.8242 25.7235L17.594 26.9034C17.7096 26.9804 17.8454 27.0214 17.9843 27.0213H19.0993L20.0393 27.9617C17.7746 29.7509 15.4904 31.2313 13.3262 32.3172L12.1747 31.4529ZM21.0395 28.9612L21.7062 29.6279C21.7921 29.7137 21.8988 29.7758 22.0158 29.8082C22.1329 29.8405 22.2564 29.842 22.3742 29.8124L24.555 29.2675L24.9775 30.5369L24.4596 32.0904L22.6842 32.6824C22.5442 32.729 22.4223 32.8185 22.3359 32.9382C22.2496 33.0579 22.2031 33.2018 22.203 33.3494V35.0825L20.4067 36.28C20.2612 36.377 20.1571 36.5247 20.1147 36.6944L19.7421 38.1834C18.8535 38.095 17.973 37.9386 17.1083 37.7156L16.5711 33.9529C16.5471 33.7853 16.4635 33.6321 16.3356 33.5212C16.2077 33.4104 16.0441 33.3494 15.8749 33.3494H14.7031L14.5739 33.2527C16.68 32.1365 18.8734 30.6825 21.0395 28.9612ZM14.0468 34.615C14.1685 34.7063 14.3165 34.7557 14.4687 34.7557H15.265L15.6225 37.2595C13.9894 36.6778 12.4515 35.8573 11.0588 34.8249C11.7443 34.5795 12.4468 34.2893 13.1661 33.9542L14.0468 34.615ZM21.1708 38.2671L21.4129 37.2993L23.2962 36.0438C23.3925 35.9796 23.4715 35.8926 23.5261 35.7905C23.5807 35.6885 23.6093 35.5745 23.6093 35.4588V33.8562L25.2379 33.3133C25.3414 33.2788 25.4355 33.2206 25.5127 33.1435C25.5899 33.0663 25.648 32.9722 25.6825 32.8687L26.3857 30.7593C26.4338 30.615 26.4338 30.4589 26.3857 30.3146L25.6825 28.2052C25.6265 28.0371 25.5091 27.8964 25.3539 27.8112C25.1986 27.726 25.0169 27.7025 24.845 27.7454L22.4187 28.3519L22.1335 28.0667C22.7898 27.5151 23.4409 26.9408 24.0871 26.344L23.1315 25.3122C22.4724 25.9225 21.8071 26.5082 21.1356 27.0692L19.8875 25.8211C19.7558 25.6893 19.577 25.6151 19.3905 25.615H18.1971L16.265 24.3269C16.1618 24.2581 16.0423 24.2178 15.9186 24.2101C15.7949 24.2024 15.6713 24.2275 15.5604 24.283L12.7479 25.6892C12.6803 25.723 12.6186 25.7676 12.5652 25.8211L11.159 27.2273C11.1262 27.2601 11.0968 27.2959 11.0711 27.3344L9.66482 29.4438C9.5878 29.5593 9.5467 29.6951 9.5467 29.8339C9.5467 29.9727 9.5878 30.1084 9.66482 30.2239L11.0711 32.3333C11.1153 32.3996 11.1705 32.4579 11.2343 32.5057L11.8812 32.9908C11.192 33.2894 10.4872 33.5505 9.76984 33.7731C8.28071 32.437 7.02898 30.858 6.06789 29.1033L7.15615 28.2869C7.24348 28.2214 7.31436 28.1365 7.36317 28.0389C7.41199 27.9412 7.4374 27.8336 7.4374 27.7244V24.4217L8.60441 22.6711L11.9173 21.346C12.0057 21.3106 12.086 21.2577 12.1534 21.1904L13.5596 19.7841C13.6249 19.7188 13.6767 19.6413 13.712 19.556C13.7473 19.4707 13.7655 19.3793 13.7655 19.2869V16.0625L15.2377 14.5903L17.5624 16.3338C17.5728 16.3416 17.5834 16.3491 17.5942 16.3563L19.7036 17.7625C19.8223 17.8417 19.9623 17.8829 20.105 17.8806C20.2476 17.8783 20.3862 17.8326 20.5023 17.7497L25.4242 14.2341C25.5602 14.1369 25.6571 13.9946 25.6976 13.8324L26.4008 11.0199C26.436 10.8792 26.4269 10.731 26.3746 10.5957C26.3223 10.4604 26.2294 10.3445 26.1087 10.2641L24.2001 8.99158L23.5732 7.11073C23.5386 7.00719 23.4805 6.91311 23.4033 6.83593C23.3261 6.75876 23.2321 6.70061 23.1285 6.66609L19.5114 5.46102L20.0189 3.17806C20.5074 3.1371 21.001 3.11504 21.4999 3.11504C23.9689 3.11421 26.4102 3.63469 28.6642 4.64242C30.9181 5.65016 32.9339 7.12244 34.5796 8.96293C34.0386 10.7314 33.1441 12.6613 31.9165 14.7063L33.1222 15.43C34.2104 13.6168 35.0507 11.8813 35.632 10.2524C37.3246 12.5329 38.4363 15.1913 38.8712 17.9978L36.6007 19.3907C36.4438 19.487 36.3309 19.6409 36.2863 19.8195L34.9735 25.0701L31.1213 26.3543C30.9813 26.401 30.8595 26.4905 30.7733 26.6102C30.687 26.7299 30.6405 26.8737 30.6405 27.0213V30.9488L29.4402 32.1491C29.3311 32.2582 29.261 32.4001 29.2405 32.553C29.22 32.7058 29.2504 32.8612 29.3269 32.9951L30.8123 35.595C28.0225 37.3472 24.7943 38.2749 21.4999 38.2713C21.3899 38.2713 21.2802 38.2691 21.1708 38.2671ZM31.9772 34.7989L30.8144 32.7637L31.8409 31.7372C31.9061 31.6719 31.9579 31.5944 31.9933 31.5091C32.0286 31.4238 32.0468 31.3324 32.0468 31.24V27.5281L35.7848 26.282C35.897 26.2446 35.9979 26.1795 36.0783 26.0927C36.1587 26.006 36.2158 25.9003 36.2445 25.7856L37.5812 20.4392L39.0395 19.5445C39.0641 19.9244 39.078 20.3072 39.078 20.6932C39.0778 23.4355 38.4355 26.1397 37.2024 28.5891C35.9694 31.0386 34.1798 33.1653 31.9772 34.7989Z" fill="#176BD8"/>
<path d="M34.1562 23.5059V17.8809C34.1563 17.7282 34.1065 17.5795 34.0145 17.4576C33.9226 17.3356 33.7934 17.2469 33.6465 17.2049L28.7246 15.7986C28.5982 15.7624 28.4643 15.7624 28.3379 15.7986L23.416 17.2049C23.2691 17.2469 23.1399 17.3356 23.048 17.4576C22.956 17.5795 22.9062 17.7282 22.9063 17.8809V23.5059C22.9062 23.6587 22.956 23.8073 23.048 23.9293C23.1399 24.0513 23.2691 24.14 23.416 24.182L28.3379 25.5882C28.4643 25.6244 28.5982 25.6244 28.7246 25.5882L33.6465 24.182C33.7934 24.14 33.9226 24.0513 34.0145 23.9293C34.1065 23.8073 34.1563 23.6587 34.1562 23.5059ZM28.5312 17.2059L30.8937 17.8809L28.5312 18.5559L26.1688 17.8809L28.5312 17.2059ZM24.3125 18.8131L27.8281 19.8176V23.98L24.3125 22.9756V18.8131ZM29.2344 23.98V19.8176L32.75 18.8131V22.9756L29.2344 23.98Z" fill="#CA1E28"/>
<path d="M20.7969 11.5527H22.2031V12.959H20.7969V11.5527Z" fill="#EEEEEE"/>
<path d="M11.6562 8.74023H13.0625V10.1465H11.6562V8.74023Z" fill="#EEEEEE"/>
<path d="M8.14062 17.1777H9.54688V18.584H8.14062V17.1777Z" fill="#EEEEEE"/>
<path d="M14.4688 27.7246H15.875V29.1309H14.4688V27.7246Z" fill="#EEEEEE"/>
<path d="M18.6875 32.6465H20.0938V34.0527H18.6875V32.6465Z" fill="#EEEEEE"/>
<path d="M33.4531 28.4277H34.8594V29.834H33.4531V28.4277Z" fill="#EEEEEE"/>
<path d="M107.206 15.071V10.2983H126.169V15.071H119.607V32.1165H113.769V15.071H107.206Z" fill="#EEEEEE"/>
<path d="M99.5836 17.1165C99.5268 16.4063 99.2605 15.8523 98.7846 15.4545C98.3159 15.0568 97.6021 14.858 96.6433 14.858C96.0325 14.858 95.5318 14.9325 95.1412 15.0817C94.7576 15.2237 94.4735 15.419 94.2889 15.6676C94.1042 15.9162 94.0083 16.2003 94.0012 16.5199C93.987 16.7827 94.0332 17.0206 94.1397 17.2337C94.2534 17.4396 94.4309 17.6278 94.6724 17.7983C94.9139 17.9616 95.2228 18.1108 95.5992 18.2457C95.9757 18.3807 96.4231 18.5014 96.9416 18.608L98.7313 18.9915C99.9387 19.2472 100.972 19.5845 101.831 20.0036C102.691 20.4226 103.394 20.9162 103.941 21.4844C104.488 22.0455 104.889 22.6776 105.145 23.3807C105.407 24.0838 105.542 24.8509 105.55 25.6818C105.542 27.1165 105.184 28.331 104.474 29.3253C103.763 30.3196 102.748 31.076 101.427 31.5945C100.113 32.1129 98.5325 32.3722 96.6859 32.3722C94.7896 32.3722 93.1348 32.0916 91.7214 31.5305C90.3152 30.9695 89.2214 30.1065 88.4402 28.9418C87.666 27.7699 87.2754 26.2713 87.2683 24.446H92.8933C92.9288 25.1136 93.0957 25.6747 93.394 26.1293C93.6923 26.5838 94.1113 26.9283 94.6511 27.1626C95.198 27.397 95.8478 27.5142 96.6007 27.5142C97.2328 27.5142 97.7619 27.4361 98.188 27.2798C98.6142 27.1236 98.9373 26.907 99.1575 26.63C99.3777 26.353 99.4913 26.0369 99.4984 25.6818C99.4913 25.348 99.3812 25.0568 99.1681 24.8082C98.9622 24.5526 98.6213 24.3253 98.1454 24.1264C97.6696 23.9205 97.0268 23.7287 96.2171 23.5511L94.0438 23.0824C92.112 22.6634 90.5886 21.9638 89.4735 20.9837C88.3656 19.9964 87.8152 18.6506 87.8223 16.946C87.8152 15.5611 88.1845 14.3501 88.9302 13.3132C89.6831 12.2692 90.7235 11.456 92.0517 10.8736C93.3869 10.2912 94.9174 10 96.6433 10C98.4046 10 99.9281 10.2947 101.214 10.8842C102.499 11.4737 103.49 12.3047 104.186 13.3771C104.889 14.4425 105.244 15.6889 105.251 17.1165H99.5836Z" fill="#EEEEEE"/>
<path d="M70.4625 32.1165H64.0705L71.2722 10.2983H79.3688L86.5705 32.1165H80.1785L75.4057 16.3068H75.2353L70.4625 32.1165ZM69.2694 23.5085H81.2864V27.9403H69.2694V23.5085Z" fill="#EEEEEE"/>
<path d="M50 32.1165V10.2983H65.3409V15.071H55.9233V18.821H64.4034V23.5937H55.9233V32.1165H50Z" fill="#EEEEEE"/>
<path d="M243.028 14.071V9.29829H261.991V14.071H255.429V31.1165H249.591V14.071H243.028Z" fill="#176BD8"/>
<path d="M221.125 31.1165V9.29829H227.048V17.821H234.889V9.29829H240.812V31.1165H234.889V22.5937H227.048V31.1165H221.125Z" fill="#176BD8"/>
<path d="M212.12 16.5C212.028 16.1236 211.882 15.7933 211.683 15.5092C211.485 15.218 211.236 14.973 210.938 14.7741C210.646 14.5682 210.306 14.4155 209.915 14.3161C209.531 14.2095 209.109 14.1562 208.647 14.1562C207.653 14.1562 206.804 14.3942 206.101 14.87C205.405 15.3459 204.872 16.0313 204.503 16.9261C204.141 17.821 203.96 18.9006 203.96 20.1648C203.96 21.4432 204.134 22.5369 204.482 23.446C204.83 24.3551 205.348 25.0511 206.037 25.5341C206.726 26.017 207.582 26.2585 208.605 26.2585C209.507 26.2585 210.256 26.1271 210.852 25.8643C211.456 25.6016 211.907 25.2287 212.205 24.7457C212.504 24.2628 212.653 23.6946 212.653 23.0412L213.676 23.1477H208.69V18.929H218.363V21.9545C218.363 23.9432 217.941 25.6442 217.095 27.0575C216.257 28.4638 215.1 29.5433 213.622 30.2962C212.152 31.0419 210.465 31.4148 208.562 31.4148C206.438 31.4148 204.574 30.9638 202.969 30.0618C201.364 29.1598 200.11 27.8743 199.208 26.2053C198.313 24.5362 197.866 22.5511 197.866 20.25C197.866 18.446 198.139 16.848 198.686 15.456C199.24 14.0639 200.007 12.8885 200.987 11.9297C201.968 10.9638 203.1 10.2358 204.386 9.74574C205.671 9.24858 207.049 9 208.519 9C209.812 9 211.012 9.18466 212.12 9.55398C213.235 9.91619 214.219 10.4347 215.071 11.1094C215.931 11.777 216.623 12.5689 217.149 13.4851C217.674 14.4013 217.994 15.4062 218.107 16.5H212.12Z" fill="#176BD8"/>
<path d="M195.144 9.29829V31.1165H189.221V9.29829H195.144Z" fill="#176BD8"/>
<path d="M170.559 31.1165V9.29829H186.283V14.071H176.482V17.821H185.473V22.5937H176.482V26.3437H186.24V31.1165H170.559Z" fill="#176BD8"/>
<path d="M150.52 31.1165V9.29829H159.937C161.556 9.29829 162.973 9.59304 164.188 10.1825C165.402 10.772 166.347 11.6207 167.022 12.7287C167.696 13.8366 168.034 15.1648 168.034 16.7131C168.034 18.2756 167.686 19.593 166.99 20.6655C166.301 21.7379 165.331 22.5476 164.081 23.0945C162.838 23.6413 161.386 23.9148 159.724 23.9148H154.099V19.3125H158.531C159.227 19.3125 159.82 19.2273 160.31 19.0568C160.807 18.8793 161.187 18.5987 161.45 18.2152C161.72 17.8317 161.855 17.331 161.855 16.7131C161.855 16.0881 161.72 15.5803 161.45 15.1896C161.187 14.7919 160.807 14.5007 160.31 14.316C159.82 14.1243 159.227 14.0284 158.531 14.0284H156.443V31.1165H150.52ZM163.304 21.1023L168.758 31.1165H162.324L156.997 21.1023H163.304Z" fill="#176BD8"/>
<path d="M133 31.1165V9.29829H148.341V14.071H138.923V17.821H147.403V22.5937H138.923V31.1165H133Z" fill="#176BD8"/>
</svg>
